<svg xmlns="http://www.w3.org/2000/svg" xmlns:xlink="http://www.w3.org/1999/xlink" viewBox="0 0 213.84 95.86"><defs><style>.cls-1{fill:none;}.cls-2{isolation:isolate;}.cls-3{fill:#b7b7b7;opacity:0.42;mix-blend-mode:multiply;}.cls-4{font-size:58.62px;fill:#c66d1e;font-family:NexaBold;}.cls-5{font-size:12.34px;fill:#666;font-family:Poppins-Light, Poppins;font-weight:300;}.cls-6{fill:#e02828;}.cls-7{fill:#d67c22;}.cls-8{fill:#e28e33;}.cls-9{fill:#e89442;}.cls-10{fill:#ef9c56;}.cls-11{fill:#ed3e3e;}.cls-12{fill:#181818;}.cls-13{clip-path:url(#clip-path);}.cls-14{fill:#d04642;}.cls-15{fill:#c91f1f;}.cls-16{fill:#eac71b;}.cls-17{fill:#ba6315;}</style><clipPath id="clip-path" transform="translate(-37.46 -17.27)"><path class="cls-1" d="M77.35,57.27a4.39,4.39,0,0,0-3.27-1.14H74c-1.89.16-2.48-2.73,0-3.32s5.45.77,6.19,2.8C80.9,57.39,79.08,58.83,77.35,57.27Z"/></clipPath></defs><title>error</title><g class="cls-2"><g id="OBJECTS"><ellipse class="cls-3" cx="38.16" cy="90.26" rx="18.98" ry="3.91"/><path class="cls-3" d="M251.3,105.53c0,2.16-8.5,3.91-19,3.91s-19-1.75-19-3.91,8.49-3.91,19-3.91S251.3,103.37,251.3,105.53Z" transform="translate(-37.46 -17.27)"/><text class="cls-4" transform="translate(58.25 81.21)">404</text><text class="cls-5" transform="translate(85 25.03)">OOPS ... </text><path class="cls-6" d="M39.62,79.5s-1.5-.93-1.87.3-.38,3,0,3.18a15.33,15.33,0,0,0,2.55,0S41.07,80.23,39.62,79.5Z" transform="translate(-37.46 -17.27)"/><path class="cls-7" d="M76.65,80.23s-3.36-2.37-4.18,1.42a26.48,26.48,0,0,1,1.19,6c1.4.29,2.78.62,4.13,1C77.79,85,77.51,81.77,76.65,80.23Z" transform="translate(-37.46 -17.27)"/><path class="cls-8" d="M78.93,103.57l-2.07-.91a135.41,135.41,0,0,0,.93-14c-1.35-.37-2.73-.7-4.13-1A49.92,49.92,0,0,1,73,101.49s-1.32,3.55.14,5,2.76,1,4.61,1.7,4.93.91,6.18-1.19S82.67,101.35,78.93,103.57Z" transform="translate(-37.46 -17.27)"/><path class="cls-7" d="M56.26,77.83s-3.37-2.48-4.18,1.5a31.9,31.9,0,0,1,1.33,8.09,37.76,37.76,0,0,1,4-.68C57.41,83,57.13,79.47,56.26,77.83Z" transform="translate(-37.46 -17.27)"/><path class="cls-8" d="M58.54,102.34l-2.07-1s.92-7.83.93-14.64a37.76,37.76,0,0,0-4,.68,56.51,56.51,0,0,1-.76,12.74s-1.32,3.73.14,5.28,2.76,1,4.61,1.79,4.93,1,6.18-1.26S62.28,100,58.54,102.34Z" transform="translate(-37.46 -17.27)"/><path class="cls-9" d="M71.13,40.16A10,10,0,0,0,72,31.64a4,4,0,0,0-.28-.51c-5.73,2-14.22,7.27-18.43,21.36C60.44,50.64,67,47,71.13,40.16Z" transform="translate(-37.46 -17.27)"/><path class="cls-8" d="M79.8,27.71a3.33,3.33,0,0,0,.07.65S79.85,28.11,79.8,27.71Z" transform="translate(-37.46 -17.27)"/><path class="cls-8" d="M82.18,32.09s3.31.27,2.9-1.13a1.36,1.36,0,0,0-1.71-1s3.42-2.72,1.39-3.92-3.34,2.52-3.34,2.52.16-1.71-.89-1.79c-.62,0-.74.5-.73,1s.07.65.07.65a3.33,3.33,0,0,1-.07-.65c-.24-1.73-1.1-6.32-3.55-5.87-3,.55,1.43,7.07,1.43,7.07s-.9-.72-1.22,0,1.06,1,1.06,1a20,20,0,0,0-5.81,1.2,4,4,0,0,1,.28.51,10,10,0,0,1-.86,8.52C67,47,60.44,50.64,53.28,52.49a54.92,54.92,0,0,0-1.79,8.28S49.36,78.15,49.86,79c1,1.72,12.66,3.86,25.64,3.38a3,3,0,0,0,2.69-2l6.2-16a49.21,49.21,0,0,0,3.33-16.8C87.83,41.32,86.79,34.53,82.18,32.09Z" transform="translate(-37.46 -17.27)"/><path class="cls-8" d="M60.28,53.35c-.51-1-1.66-1.86-4.2-1.49-3.59.52-6.51,5.45-8.06,8.69C52.79,59.08,57.19,56.79,60.28,53.35Z" transform="translate(-37.46 -17.27)"/><path class="cls-8" d="M49.25,63.75A12.24,12.24,0,0,1,59.6,57.63a3.79,3.79,0,0,0,1-1.82,4.41,4.41,0,0,0-.33-2.46c-3.09,3.44-7.49,5.73-12.26,7.2-.79,1.63-1.22,2.84-1.22,2.84s-1.95-.23-2.38,2.26c0,0-.22,1.24.54,1.69,0,0-7.45,10.85-5.83,15.15a1.53,1.53,0,0,0,1,1.77s.83,1.8,2,1.16c0,0-1,2.49.29,3s2.74.3,3.24-1.81c.13-.53.39-2.36.87-4.86C45.41,75.69,45.84,69.37,49.25,63.75Z" transform="translate(-37.46 -17.27)"/><path class="cls-7" d="M49.25,63.75c-3.41,5.62-3.84,11.94-2.7,18C48,74.39,51.26,61.28,58.67,58.07a1.55,1.55,0,0,0,.93-.44A12.24,12.24,0,0,0,49.25,63.75Z" transform="translate(-37.46 -17.27)"/><path class="cls-7" d="M53,53.38s4.51-3.5,7.27,0C60.28,53.35,58.44,50.94,53,53.38Z" transform="translate(-37.46 -17.27)"/><path class="cls-10" d="M76.25,21.84s2.84-1.19,3.59,6.31c0,0-.47-1.59.69-1.41s.89,1.79.89,1.79.8-3.44,3.09-2.64-.41,3.51-1.14,4c0,0,1.58-.27,1.74,1.2,0,0-.89-1.45-2.15-.81,0,0,2.86-3.44,1.28-3.76s-2.89,2.7-2.89,2.7-.23-2.07-.91-1.78-.57,1.73-.57,1.73S78.55,22.11,76.25,21.84Z" transform="translate(-37.46 -17.27)"/><path class="cls-6" d="M48.54,82.46A4.33,4.33,0,0,0,45.16,81a10.68,10.68,0,0,0-.64,4s-7.74,14.49-3.76,12.36c3-1.63,6.46-.48,7.92.15a.56.56,0,0,0,.63-.13C46.68,92.69,45.93,87.11,48.54,82.46Z" transform="translate(-37.46 -17.27)"/><path class="cls-11" d="M49.78,86.48a6.08,6.08,0,0,0-1.24-4c-2.61,4.65-1.86,10.23.77,14.91a.56.56,0,0,0,.15-.34C49.58,95.28,49.83,91,49.78,86.48Z" transform="translate(-37.46 -17.27)"/><path class="cls-12" d="M73.86,47.26c-.39.93-.43,1.81-.09,2s.94-.49,1.33-1.42.43-1.82.09-2-.94.49-1.33,1.43" transform="translate(-37.46 -17.27)"/><path class="cls-12" d="M81.67,49.14c-.32,1-.3,1.84,0,2s.9-.55,1.22-1.52.29-1.84-.06-2-.89.56-1.21,1.52" transform="translate(-37.46 -17.27)"/><path class="cls-12" d="M79.93,43.45c-.32,1-.3,1.85,0,2s.9-.56,1.22-1.52.29-1.84-.06-2-.89.55-1.21,1.51" transform="translate(-37.46 -17.27)"/><path class="cls-12" d="M77.35,57.27a4.39,4.39,0,0,0-3.27-1.14H74c-1.89.16-2.48-2.73,0-3.32s5.45.77,6.19,2.8C80.9,57.39,79.08,58.83,77.35,57.27Z" transform="translate(-37.46 -17.27)"/><g class="cls-13"><path class="cls-14" d="M79.17,58c-.33.87-2,1-3.7.36s-2.81-1.9-2.47-2.77,2-1,3.7-.36S79.51,57.14,79.17,58Z" transform="translate(-37.46 -17.27)"/></g><path class="cls-8" d="M89.62,63.48C91.6,55.19,86,51.77,86,51.77l-.6,1.73-2.67,7.69c-.93,5.49-4.23,2.62-4.23,2.62-.27-.85-.6,0-.6,0V58.3c0-2.18-.54-3.08-1.56-2.52s-.7,5-.7,5c-.73-1.1-1.33,0-1.33,0a.72.72,0,0,0-.72-.42c-.52,0-.54.62-.54.62-.17-.29-.87-1.19-1.52,0s1.14,7.63,4.06,9.55a5.9,5.9,0,0,0,2.35.8A17.62,17.62,0,0,0,89.62,63.48Z" transform="translate(-37.46 -17.27)"/><path class="cls-7" d="M78,71.39a10.48,10.48,0,0,0,10-4.13,10.92,10.92,0,0,0,1.64-3.68s0-.07,0-.1A17.62,17.62,0,0,1,78,71.39Z" transform="translate(-37.46 -17.27)"/><path class="cls-7" d="M83.46,64.88a6.3,6.3,0,0,1-5.52-1.07s1-8.22-1.08-8.19c0,0-1.75-.39-1.2,4.87a.89.89,0,0,0-1.31.35s-.87-1-1.25.11c0,0-1.24-1.13-1.66.29,0,0-1.58,8.33,7.35,10.26a9.74,9.74,0,0,1-7.12-10.07.63.63,0,0,1,.6-.52c.53,0,.84.59.84.59s.17-.81.58-.72.69.67.69.67.15-.92.76-.77a.92.92,0,0,1,.63.86s-.32-5.91,1-5.7.94,8.42.94,8.42S80.83,66.84,83.46,64.88Z" transform="translate(-37.46 -17.27)"/><path class="cls-7" d="M87.25,53.35a53.45,53.45,0,0,1-3.54,11.53S87.17,59.36,87.25,53.35Z" transform="translate(-37.46 -17.27)"/><path class="cls-15" d="M49.47,97.25c0,1.78-2.21,3.22-4.93,3.22S39.62,99,39.62,97.25,41.82,94,44.54,94,49.47,95.46,49.47,97.25Z" transform="translate(-37.46 -17.27)"/><path class="cls-16" d="M43.67,97.37v6.68l1.52-6.46a.52.52,0,0,0-.26-.59,1.45,1.45,0,0,0-.81-.16A.54.54,0,0,0,43.67,97.37Z" transform="translate(-37.46 -17.27)"/><path class="cls-16" d="M45,103.07a1.25,1.25,0,1,1-1.25-1.24A1.24,1.24,0,0,1,45,103.07Z" transform="translate(-37.46 -17.27)"/><path class="cls-9" d="M200,44.73a11.28,11.28,0,0,0-4.91-2.13,9.86,9.86,0,0,0-8.34,2.07A69.83,69.83,0,0,0,200,44.73Z" transform="translate(-37.46 -17.27)"/><path class="cls-8" d="M200,44.73a69.83,69.83,0,0,1-13.25-.06,9.1,9.1,0,0,0-2.14,2.54s-3.57,2.46-3.43,3.55.8.7.8.7c0,1.06.56.85.56.85s-.82,4.16.31,4.21,2-3.36,2-3.36,0,.85,1.31.59,1.22-3.35,1.22-3.35a5.31,5.31,0,0,1,5.54-3.5c3.87.34,6.78,3.83,8.84,7.67A21.45,21.45,0,0,0,203,47.8,14.39,14.39,0,0,0,200,44.73Z" transform="translate(-37.46 -17.27)"/><path class="cls-7" d="M205.21,52A17.1,17.1,0,0,0,203,47.8a21.45,21.45,0,0,1-1.27,6.77,46.87,46.87,0,0,1,3.9,10.55A51.19,51.19,0,0,0,205.21,52Z" transform="translate(-37.46 -17.27)"/><path class="cls-7" d="M234.83,51.3a13.34,13.34,0,0,0,.38,9.09,5.26,5.26,0,0,1,1.51.51,48.64,48.64,0,0,1,2-8A14.2,14.2,0,0,0,234.83,51.3Z" transform="translate(-37.46 -17.27)"/><path class="cls-9" d="M240.33,54.08A59.27,59.27,0,0,0,245.81,71C246,65.61,245.26,58.29,240.33,54.08Z" transform="translate(-37.46 -17.27)"/><path class="cls-8" d="M240.33,54.08a11.69,11.69,0,0,0-1.58-1.16,48.64,48.64,0,0,0-2,8c2.4,1.19,6.54,5,4.13,17,0,0-2.46,1.88-2.46,3.36s.81,1.87.81,1.87-.63,1.48.64,1.48a7.08,7.08,0,0,1,2.68.46c.35.17,1.27-.25,1.76,0a2.44,2.44,0,0,0,2.08-.14c.42-.39.14-5.75-1.34-7.37a39.77,39.77,0,0,0,.79-6.58A59.27,59.27,0,0,1,240.33,54.08Z" transform="translate(-37.46 -17.27)"/><path class="cls-8" d="M213.73,101.16s-.6-1-1.18-.37c0,0-4.24-2.75-6.25,1.83s7,4.79,9.23,2.64,2.92-2.22,2.92-2.22.9-1.46,0-2.08c-.67-.47-2.48-7.29-2.87-14.57-1.25.13-2.49.31-3.72.55Z" transform="translate(-37.46 -17.27)"/><path class="cls-7" d="M215.81,78.8s-4.1-3.61-5.21-1.46l1.26,9.6c1.23-.24,2.47-.42,3.72-.55A42.41,42.41,0,0,1,215.81,78.8Z" transform="translate(-37.46 -17.27)"/><path class="cls-8" d="M229.46,99.06s.61-1,1.19-.37c0,0,4.23-2.75,6.25,1.83s-7,4.79-9.24,2.64-2.92-2.22-2.92-2.22-.9-1.46,0-2.08c.67-.47,2.48-7.29,2.87-14.57,1.25.13,2.49.31,3.72.55Z" transform="translate(-37.46 -17.27)"/><path class="cls-7" d="M227.38,76.7s4.1-3.61,5.21-1.46l-1.26,9.6c-1.23-.24-2.47-.42-3.72-.55A41.5,41.5,0,0,0,227.38,76.7Z" transform="translate(-37.46 -17.27)"/><path class="cls-8" d="M216.08,26.35a1.24,1.24,0,0,0,.1.22S216.15,26.49,216.08,26.35Z" transform="translate(-37.46 -17.27)"/><path class="cls-9" d="M232.48,46a35.52,35.52,0,0,0,3.37,1.83c-.94-7.07-3.08-13.78-7.47-17.72a13.7,13.7,0,0,0-2.73-1.92C223.5,34.21,227,42.73,232.48,46Z" transform="translate(-37.46 -17.27)"/><path class="cls-8" d="M232.48,46c-5.45-3.27-9-11.79-6.83-17.81a13.55,13.55,0,0,0-2.5-1s6.92-6.62,2.9-9.4-6.53,8.13-6.53,8.13-1.25-2.78-2.71-1.67a1.72,1.72,0,0,0-.73,2.14c.07.14.1.22.1.22a1.24,1.24,0,0,1-.1-.22c-.7-1.36-4.61-8.6-8-6.58-3.68,2.22,5.07,8.82,5.07,8.82a18,18,0,0,0-4.45,5.67c-3.61,6.55-7.36,19.54-2.33,42.69a42.26,42.26,0,0,0,18.11-.15A18.53,18.53,0,0,0,236,68.53a96.57,96.57,0,0,0-.15-20.7A35.52,35.52,0,0,1,232.48,46Z" transform="translate(-37.46 -17.27)"/><path class="cls-7" d="M224.53,76.8a42.26,42.26,0,0,1-18.11.15c.17.77.34,1.55.53,2.33,0,0,4,.84,14.65,0s13.54-3.82,13.54-3.82.47-2.74.86-6.93A18.53,18.53,0,0,1,224.53,76.8Z" transform="translate(-37.46 -17.27)"/><path class="cls-12" d="M219.07,39.78c0,.87.32,1.57.64,1.56s.56-.72.52-1.59-.32-1.56-.64-1.56-.55.72-.52,1.59" transform="translate(-37.46 -17.27)"/><path class="cls-12" d="M214.48,45.82c0,.87.32,1.57.64,1.56s.55-.71.52-1.58-.33-1.57-.65-1.56-.55.71-.51,1.58" transform="translate(-37.46 -17.27)"/><path class="cls-12" d="M224.48,44.24c-.32,0-.55.71-.51,1.58s.32,1.57.64,1.56.55-.71.51-1.58S224.8,44.23,224.48,44.24Z" transform="translate(-37.46 -17.27)"/><path class="cls-17" d="M215.81,51.94a9.65,9.65,0,0,1,8.74-.55S219.79,48.46,215.81,51.94Z" transform="translate(-37.46 -17.27)"/><path class="cls-17" d="M215.06,51.28s1.15.1,1.07,1.61A2.67,2.67,0,0,0,215.06,51.28Z" transform="translate(-37.46 -17.27)"/><path class="cls-17" d="M224.34,52.48a2.66,2.66,0,0,1,1.07-1.6S224.26,51,224.34,52.48Z" transform="translate(-37.46 -17.27)"/><path class="cls-17" d="M218.51,52.48a5.38,5.38,0,0,1,3.45,0A3.21,3.21,0,0,0,218.51,52.48Z" transform="translate(-37.46 -17.27)"/><path class="cls-10" d="M208.13,19.77s3.56-2.86,8.05,6.8C216.18,26.57,212.59,19.83,208.13,19.77Z" transform="translate(-37.46 -17.27)"/><path class="cls-10" d="M226.82,22.15c.93-1.71.66-5.37-2.42-4.82s-4.88,8.55-4.88,8.55c-1.26-2.29-2.13-2.38-3.08-1.34a1.64,1.64,0,0,0-.26,2,1.72,1.72,0,0,1,1-1.68c1.9-.17,2.6,3.2,2.6,3.2s2-9.27,4.72-9.91S226.82,22.15,226.82,22.15Z" transform="translate(-37.46 -17.27)"/></g></g></svg>